<svg width="220" height="56" viewBox="0 0 220 56" fill="none" xmlns="http://www.w3.org/2000/svg" role="img" aria-labelledby="title">
  <title id="title">ChurchSmart logo</title>
  <defs>
    <linearGradient id="logoGradient" x1="2" y1="2" x2="54" y2="54" gradientUnits="userSpaceOnUse">
      <stop offset="0%" stop-color="#4F46E5"/>
      <stop offset="100%" stop-color="#4338CA"/>
    </linearGradient>
  </defs>
  <!-- Background rounded square - Indigo gradient -->
  <rect x="2" y="2" width="52" height="52" rx="14" fill="url(#logoGradient)"/>
  <!-- Church/C shape -->
  <path d="M36 20.5C33.8 18.9 31 18 28 18C21.9 18 17 22.9 17 29C17 35.1 21.9 40 28 40C31 40 33.8 39.1 36 37.5" stroke="white" stroke-width="3.5" stroke-linecap="round"/>
  <!-- S shape with gold accent -->
  <path d="M39 24C41.8 24 44 26.2 44 29C44 31.8 41.8 34 39 34H33.5C31 34 29 32 29 29C29 26 31 24 33.5 24H39Z" fill="#F59E0B"/>
  <!-- Text -->
  <text x="66" y="36" fill="#0F172A" font-size="22" font-family="'Plus Jakarta Sans', Inter, system-ui, -apple-system, 'Segoe UI', Roboto, Arial, sans-serif" font-weight="800">Church<tspan fill="#4F46E5">Smart</tspan></text>
</svg>
